<?xml version="1.0" encoding="UTF-8"?>
<svg width="700pt" height="700pt" version="1.1" viewBox="0 0 700 700" xmlns="http://www.w3.org/2000/svg" xmlns:xlink="http://www.w3.org/1999/xlink">
 <defs>
  <symbol id="m" overflow="visible">
   <path d="m29.312-1.75c-1.5117 0.78125-3.0898 1.3711-4.7344 1.7656-1.6367 0.40625-3.3398 0.60938-5.1094 0.60938-5.3125 0-9.5273-1.4844-12.641-4.4531-3.1055-2.9688-4.6562-7-4.6562-12.094s1.5508-9.125 4.6562-12.094c3.1133-2.9688 7.3281-4.4531 12.641-4.4531 1.7695 0 3.4727 0.19922 5.1094 0.59375 1.6445 0.39844 3.2227 0.99219 4.7344 1.7812v6.5938c-1.5312-1.0391-3.0391-1.8008-4.5156-2.2812-1.4805-0.48828-3.0391-0.73438-4.6719-0.73438-2.9375 0-5.2461 0.94531-6.9219 2.8281-1.6797 1.875-2.5156 4.4648-2.5156 7.7656 0 3.293 0.83594 5.8828 2.5156 7.7656 1.6758 1.875 3.9844 2.8125 6.9219 2.8125 1.6328 0 3.1914-0.23828 4.6719-0.71875 1.4766-0.48828 2.9844-1.2539 4.5156-2.2969z"/>
  </symbol>
  <symbol id="k" overflow="visible">
   <path d="m21.453-17.406c-0.67969-0.3125-1.3516-0.53906-2.0156-0.6875-0.65625-0.15625-1.3203-0.23438-1.9844-0.23438-1.9688 0-3.4844 0.63281-4.5469 1.8906-1.0547 1.2617-1.5781 3.0703-1.5781 5.4219v11.016h-7.6562v-23.922h7.6562v3.9219c0.97656-1.5625 2.1016-2.7031 3.375-3.4219 1.2812-0.71875 2.8125-1.0781 4.5938-1.0781 0.25 0 0.52344 0.011719 0.82812 0.03125 0.30078 0.023438 0.73438 0.070312 1.2969 0.14062z"/>
  </symbol>
  <symbol id="a" overflow="visible">
   <path d="m27.562-12.031v2.1875h-17.891c0.1875 1.793 0.83203 3.1367 1.9375 4.0312 1.1133 0.89844 2.6719 1.3438 4.6719 1.3438 1.6016 0 3.25-0.23438 4.9375-0.70312 1.6875-0.47656 3.4219-1.2031 5.2031-2.1719v5.8906c-1.8047 0.6875-3.6094 1.2031-5.4219 1.5469-1.8125 0.35156-3.6211 0.53125-5.4219 0.53125-4.3359 0-7.7031-1.0977-10.109-3.2969-2.3984-2.207-3.5938-5.2969-3.5938-9.2656 0-3.9062 1.1758-6.9727 3.5312-9.2031 2.3633-2.2383 5.6094-3.3594 9.7344-3.3594 3.7578 0 6.7695 1.1367 9.0312 3.4062 2.2578 2.2617 3.3906 5.2812 3.3906 9.0625zm-7.8594-2.5312c0-1.457-0.42969-2.6289-1.2812-3.5156-0.84375-0.89453-1.9492-1.3438-3.3125-1.3438-1.4922 0-2.6992 0.41797-3.625 1.25-0.91797 0.83594-1.4922 2.0391-1.7188 3.6094z"/>
  </symbol>
  <symbol id="j" overflow="visible">
   <path d="m14.391-10.766c-1.5938 0-2.793 0.27344-3.5938 0.8125-0.80469 0.54297-1.2031 1.3398-1.2031 2.3906 0 0.96875 0.32031 1.7305 0.96875 2.2812 0.64453 0.54297 1.5469 0.8125 2.7031 0.8125 1.4375 0 2.6445-0.51562 3.625-1.5469 0.98828-1.0312 1.4844-2.3203 1.4844-3.875v-0.875zm11.688-2.8906v13.656h-7.7031v-3.5469c-1.0312 1.4492-2.1875 2.5078-3.4688 3.1719s-2.8398 1-4.6719 1c-2.4805 0-4.4961-0.72266-6.0469-2.1719-1.543-1.4453-2.3125-3.3203-2.3125-5.625 0-2.8125 0.96094-4.8672 2.8906-6.1719 1.9375-1.3125 4.9688-1.9688 9.0938-1.9688h4.5156v-0.60938c0-1.207-0.48047-2.0938-1.4375-2.6562-0.94922-0.5625-2.4375-0.84375-4.4688-0.84375-1.6367 0-3.1562 0.16797-4.5625 0.5-1.4062 0.32422-2.7188 0.8125-3.9375 1.4688v-5.8281c1.6445-0.40625 3.2891-0.70703 4.9375-0.90625 1.6562-0.20703 3.3047-0.3125 4.9531-0.3125 4.3203 0 7.4375 0.85547 9.3438 2.5625 1.9141 1.6992 2.875 4.4609 2.875 8.2812z"/>
  </symbol>
  <symbol id="i" overflow="visible">
   <path d="m12.031-30.719v6.7969h7.875v5.4688h-7.875v10.141c0 1.1172 0.21875 1.8711 0.65625 2.2656 0.4375 0.38672 1.3125 0.57812 2.625 0.57812h3.9375v5.4688h-6.5625c-3.0234 0-5.1641-0.62891-6.4219-1.8906-1.2617-1.2578-1.8906-3.3984-1.8906-6.4219v-10.141h-3.7969v-5.4688h3.7969v-6.7969z"/>
  </symbol>
  <symbol id="h" overflow="visible">
   <path d="m19.953-20.422v-12.812h7.6875v33.234h-7.6875v-3.4531c-1.0547 1.4062-2.2148 2.4375-3.4844 3.0938-1.2734 0.65625-2.7422 0.98438-4.4062 0.98438-2.9492 0-5.3711-1.1719-7.2656-3.5156-1.8867-2.3438-2.8281-5.3594-2.8281-9.0469s0.94141-6.7031 2.8281-9.0469c1.8945-2.3438 4.3164-3.5156 7.2656-3.5156 1.6562 0 3.1172 0.33594 4.3906 1 1.2812 0.65625 2.4453 1.6836 3.5 3.0781zm-5.0469 15.484c1.6445 0 2.8945-0.59766 3.75-1.7969 0.86328-1.1953 1.2969-2.9297 1.2969-5.2031 0-2.2812-0.43359-4.0195-1.2969-5.2188-0.85547-1.1953-2.1055-1.7969-3.75-1.7969-1.625 0-2.8711 0.60156-3.7344 1.7969-0.85547 1.1992-1.2812 2.9375-1.2812 5.2188 0 2.2734 0.42578 4.0078 1.2812 5.2031 0.86328 1.1992 2.1094 1.7969 3.7344 1.7969z"/>
  </symbol>
  <symbol id="g" overflow="visible">
   <path d="m16.406-4.9375c1.6328 0 2.8828-0.59766 3.75-1.7969 0.86328-1.1953 1.2969-2.9297 1.2969-5.2031 0-2.2812-0.43359-4.0195-1.2969-5.2188-0.86719-1.1953-2.1172-1.7969-3.75-1.7969-1.6367 0-2.8906 0.60547-3.7656 1.8125-0.875 1.1992-1.3125 2.9336-1.3125 5.2031 0 2.2617 0.4375 3.9961 1.3125 5.2031 0.875 1.1992 2.1289 1.7969 3.7656 1.7969zm-5.0781-15.484c1.0508-1.3945 2.2188-2.4219 3.5-3.0781 1.2812-0.66406 2.7539-1 4.4219-1 2.9453 0 5.3672 1.1719 7.2656 3.5156 1.8945 2.3438 2.8438 5.3594 2.8438 9.0469s-0.94922 6.7031-2.8438 9.0469c-1.8984 2.3438-4.3203 3.5156-7.2656 3.5156-1.668 0-3.1406-0.33594-4.4219-1s-2.4492-1.6914-3.5-3.0781v3.4531h-7.6562v-33.234h7.6562z"/>
  </symbol>
  <symbol id="f" overflow="visible">
   <path d="m0.53125-23.922h7.6562l6.4219 16.234 5.4688-16.234h7.6562l-10.062 26.188c-1.0117 2.6641-2.1953 4.5234-3.5469 5.5781-1.3438 1.0625-3.1211 1.5938-5.3281 1.5938h-4.4219v-5.0156h2.3906c1.3008 0 2.2422-0.21094 2.8281-0.625 0.59375-0.40625 1.0547-1.1484 1.3906-2.2188l0.20312-0.65625z"/>
  </symbol>
  <symbol id="e" overflow="visible">
   <path d="m4.0156-31.891h9.1875l11.594 21.875v-21.875h7.7969v31.891h-9.1875l-11.594-21.875v21.875h-7.7969z"/>
  </symbol>
  <symbol id="b" overflow="visible">
   <path d="m3.6719-23.922h7.6562v23.922h-7.6562zm0-9.3125h7.6562v6.2344h-7.6562z"/>
  </symbol>
  <symbol id="l" overflow="visible">
   <path d="m27.734-14.562v14.562h-7.7031v-11.156c0-2.0625-0.046875-3.4844-0.14062-4.2656-0.085937-0.78125-0.24219-1.3594-0.46875-1.7344-0.30469-0.5-0.71094-0.88281-1.2188-1.1562-0.51172-0.28125-1.0938-0.42188-1.75-0.42188-1.5938 0-2.8516 0.61719-3.7656 1.8438-0.90625 1.2305-1.3594 2.9375-1.3594 5.125v11.766h-7.6562v-23.922h7.6562v3.5c1.1445-1.3945 2.3633-2.4219 3.6562-3.0781 1.3008-0.66406 2.7383-1 4.3125-1 2.7578 0 4.8516 0.85156 6.2812 2.5469 1.4375 1.6875 2.1562 4.1523 2.1562 7.3906z"/>
  </symbol>
  <symbol id="d" overflow="visible">
   <path d="m3.6719-23.922h7.6562v23.5c0 3.1953-0.77344 5.6406-2.3125 7.3281-1.543 1.6875-3.7734 2.5312-6.6875 2.5312h-3.7812v-5.0156h1.3281c1.4453 0 2.4414-0.32812 2.9844-0.98438 0.53906-0.65625 0.8125-1.9453 0.8125-3.8594zm0-9.3125h7.6562v6.2344h-7.6562z"/>
  </symbol>
  <symbol id="c" overflow="visible">
   <path d="m11.328-3.4531v12.547h-7.6562v-33.016h7.6562v3.5c1.0508-1.3945 2.2188-2.4219 3.5-3.0781 1.2812-0.66406 2.7539-1 4.4219-1 2.9453 0 5.3672 1.1719 7.2656 3.5156 1.8945 2.3438 2.8438 5.3594 2.8438 9.0469s-0.94922 6.7031-2.8438 9.0469c-1.8984 2.3438-4.3203 3.5156-7.2656 3.5156-1.668 0-3.1406-0.33594-4.4219-1s-2.4492-1.6914-3.5-3.0781zm5.0781-15.5c-1.6367 0-2.8906 0.60547-3.7656 1.8125-0.875 1.1992-1.3125 2.9336-1.3125 5.2031 0 2.2617 0.4375 3.9961 1.3125 5.2031 0.875 1.1992 2.1289 1.7969 3.7656 1.7969 1.6328 0 2.8828-0.59766 3.75-1.7969 0.86328-1.1953 1.2969-2.9297 1.2969-5.2031 0-2.2812-0.43359-4.0195-1.2969-5.2188-0.86719-1.1953-2.1172-1.7969-3.75-1.7969z"/>
  </symbol>
 </defs>
 <g>
  <path d="m542.5 481.25h17.5v17.5h17.5v-17.5h17.5v-17.5h-17.5v-17.5h-17.5v17.5h-17.5z"/>
  <path d="m595 411.25h17.5v17.5h-17.5z"/>
  <path d="m507.5 507.5h17.5v17.5h-17.5z"/>
  <path d="m551.25 358.75h17.5v17.5h-17.5z"/>
  <path d="m157.5 122.5v17.5h-17.5v17.5h17.5v17.5h17.5v-17.5h17.5v-17.5h-17.5v-17.5z"/>
  <path d="m131.25 74.375h17.5v17.5h-17.5z"/>
  <path d="m87.5 153.12h17.5v17.5h-17.5z"/>
  <path d="m357.88 249.84c-1.6445-2.7578-4.6211-4.4492-7.832-4.4492-3.2109 0-6.1875 1.6914-7.832 4.4492l-32.863 65.738-74.016 8.2266v-0.003907c-3.3438 0.36719-6.1836 2.6172-7.3047 5.7891-1.1172 3.1719-0.32031 6.7031 2.0547 9.0859l57.855 57.855-16.457 74.059-0.003907 0.003906c-0.76562 3.4414 0.61328 7.0039 3.4922 9.0391 2.8789 2.0391 6.6953 2.1445 9.6875 0.27734l65.344-40.844 65.363 40.855c2.9883 1.8672 6.8086 1.7578 9.6875-0.27734 2.8789-2.0391 4.2539-5.6016 3.4883-9.043l-16.414-74.059 57.855-57.855c2.375-2.3828 3.1719-5.918 2.0547-9.0898-1.1211-3.1719-3.9609-5.4219-7.3047-5.7852l-74.016-8.2266zm38.5 137.73v-0.003906c-2.1133 2.1172-3.0039 5.168-2.3555 8.0859l12.969 58.363-52.352-32.684c-2.8359-1.7734-6.4375-1.7734-9.2734 0l-52.289 32.68 12.969-58.363-0.003907 0.003907c0.64844-2.918-0.23828-5.9688-2.3516-8.0859l-48.379-48.379 60.656-6.7383-0.003906 0.003907c2.957-0.32812 5.543-2.1289 6.8711-4.7891l27.168-54.344 27.125 54.348v-0.003906c1.3281 2.6602 3.9141 4.4609 6.8672 4.7891l60.656 6.7383z"/>
  <path d="m218.75 239.35c-6.9609 0-13.641 2.7656-18.562 7.6875s-7.6875 11.602-7.6875 18.562c0.019531 5.6602 1.8828 11.16 5.3125 15.664-21.965 38.754-28.316 84.43-17.758 127.71 10.559 43.277 37.23 80.898 74.578 105.18 37.344 24.285 82.547 33.406 126.39 25.504 43.844-7.9023 83.016-32.234 109.53-68.031 2.0508 0.55078 4.1602 0.84375 6.2812 0.875 7.1094 0.027344 13.918-2.8359 18.871-7.9375 4.9492-5.0977 7.6094-11.992 7.3711-19.094s-3.3555-13.801-8.6367-18.555c11.402-31.219 13.625-65.047 6.4102-97.484-7.2148-32.441-23.57-62.137-47.133-85.574l24.984-216.6c0.28516-2.4805-0.5-4.9648-2.1641-6.832-1.6602-1.8633-4.0391-2.9258-6.5352-2.9258h-271.25c-2.4688-0.011719-4.8281 1.0234-6.4922 2.8438-1.668 1.8203-2.4883 4.2617-2.2578 6.7188l19.863 213.5c-0.31641 0.29688-0.64062 0.58594-0.95312 0.875-3.2148-1.3711-6.668-2.082-10.16-2.0898zm0 17.5c3.5391 0 6.7305 2.1328 8.082 5.4023 1.3555 3.2695 0.60938 7.0312-1.8945 9.5352s-6.2656 3.25-9.5352 1.8945c-3.2695-1.3516-5.4023-4.543-5.4023-8.082 0-4.832 3.918-8.75 8.75-8.75zm278.08 198.15c-3.5391 0-6.7266-2.1328-8.082-5.4023-1.3555-3.2695-0.60547-7.0312 1.8984-9.5352 2.5-2.5039 6.2656-3.25 9.5352-1.8945 3.2695 1.3516 5.3984 4.543 5.3984 8.082 0 2.3203-0.92188 4.5469-2.5625 6.1875s-3.8633 2.5625-6.1875 2.5625zm1.4609-34.852c-0.5 0-0.96094-0.14844-1.4609-0.14844-6.9609 0-13.637 2.7656-18.559 7.6875-4.9258 4.9219-7.6914 11.602-7.6914 18.562 0.015625 5.6953 1.9062 11.23 5.375 15.75-32.215 43.008-84.137 66.617-137.72 62.621-53.586-3.9922-101.44-35.043-126.92-82.352-25.477-47.309-25.07-104.35 1.082-151.29 2.0703 0.55469 4.207 0.84766 6.3516 0.875 6.9609 0 13.641-2.7656 18.562-7.6875s7.6875-11.602 7.6875-18.562c-0.035156-4.2852-1.1328-8.4922-3.1953-12.25 29.105-27.895 67.883-43.434 108.2-43.355 51.195-0.11328 99.234 24.715 128.75 66.543 29.52 41.828 36.809 95.41 19.547 143.61zm-148.29-227.65c-11.754 0.007812-23.477 1.1797-35 3.5v-161h70v161c-11.52-2.3359-23.246-3.5078-35-3.5zm107.71 37.363c-16.488-13.008-35.195-22.934-55.211-29.297v-165.57h77.684zm-229.34-194.86h69.125v165.45c-18.461 5.8359-35.809 14.738-51.309 26.34z"/>
  <use x="70" y="691.25" xlink:href="#m"/>
  <use x="102.109375" y="691.25" xlink:href="#k"/>
  <use x="123.683594" y="691.25" xlink:href="#a"/>
  <use x="153.355469" y="691.25" xlink:href="#j"/>
  <use x="182.878906" y="691.25" xlink:href="#i"/>
  <use x="203.792969" y="691.25" xlink:href="#a"/>
  <use x="233.464844" y="691.25" xlink:href="#h"/>
  <use x="280.011719" y="691.25" xlink:href="#g"/>
  <use x="311.328125" y="691.25" xlink:href="#f"/>
  <use x="355.078125" y="691.25" xlink:href="#e"/>
  <use x="391.695312" y="691.25" xlink:href="#b"/>
  <use x="406.691406" y="691.25" xlink:href="#l"/>
  <use x="437.835937" y="691.25" xlink:href="#a"/>
  <use x="467.507812" y="691.25" xlink:href="#d"/>
  <use x="482.507812" y="691.25" xlink:href="#b"/>
  <use x="497.503906" y="691.25" xlink:href="#c"/>
  <use x="528.820312" y="691.25" xlink:href="#d"/>
  <use x="543.816406" y="691.25" xlink:href="#b"/>
  <use x="558.8125" y="691.25" xlink:href="#c"/>
 </g>
</svg>
