<?xml version="1.0" encoding="UTF-8"?>
<svg width="700pt" height="700pt" version="1.1" viewBox="0 0 700 700" xmlns="http://www.w3.org/2000/svg">
 <g>
  <path d="m369.2 412.3h-0.070313-31.965v-15.492c-0.14062-10.359-8.7031-18.809-19.086-18.809h-0.046875-144.6-0.070312c-10.383 0-18.875 8.4453-18.898 18.898v15.398l-32.18 0.003906h-0.070312c-9.2148 0-16.848 7.4648-17.012 16.801v37.801c0 3.2188 2.6133 5.832 5.832 5.832h269.29c3.2188 0 5.832-2.6133 5.832-5.832v-37.895c-0.13672-9.2422-7.7422-16.707-16.961-16.707zm-203.07-15.379c0-4.0117 3.2656-7.2578 7.4414-7.2578h0.023437 144.46 0.023437c4.0352 0 7.375 3.2891 7.4219 7.2344v15.398l-159.37 0.003906zm208.37 64.145h-257.6v-31.875c0.046874-2.8711 2.4258-5.2266 5.3438-5.2266h0.023437 246.91c2.8945 0 5.2734 2.332 5.3203 5.1328z"/>
  <path d="m611.19 344-1.6328-0.93359c-7.2344-4.1289-15.797-4.2695-23.262-0.98047l-224.16-129.34 4.1758-7.3281c1.6328 0.44141 3.3359 0.67578 5.0391 0.67578s3.4297-0.23437 5.1562-0.67578c5.1797-1.375 9.4961-4.668 12.156-9.2852 2.6836-4.6211 3.4062-10.012 2.0312-15.168 0-0.023437-0.023437-0.023437-0.023437-0.046875 4.9453-1.3086 9.4258-4.5039 12.227-9.3086 5.4844-9.543 2.2852-21.887-7.2812-27.559l-93.914-54.227c-9.6836-5.2969-21.629-1.957-27.207 7.5625-2.8008 4.7812-3.3594 10.242-2.0039 15.211h-0.070312c-5.1797 1.375-9.4961 4.668-12.156 9.2852-2.6836 4.6211-3.4062 10.012-2.0312 15.168 0.91016 3.4297 2.8945 6.2539 5.3203 8.6797l-37.191 64.398c-3.2422-0.81641-6.6016-1.0977-9.918-0.23438-5.1797 1.375-9.4961 4.668-12.156 9.2852-2.6836 4.6211-3.4062 10.035-2.0312 15.191v0.023438c-4.9453 1.3086-9.4258 4.5273-12.227 9.3086-1.7969 3.1484-2.707 6.6719-2.6367 10.125 0 7.0938 3.7812 13.742 9.918 17.43l93.777 54.133c3.1016 1.8203 6.5352 2.6836 9.918 2.6836 6.8359 0 13.578-3.5703 17.453-10.172 2.8008-4.7852 3.3594-10.242 2.0312-15.215h0.046875c5.1797-1.375 9.4961-4.668 12.18-9.2852 2.6836-4.5977 3.4062-10.012 2.0312-15.168-0.91016-3.4297-2.918-6.2539-5.3438-8.7031l4.3867-7.7227 73.941 42.699c0.023437 0.023437 0.023437 0.046875 0.046875 0.070313 0.046875 0.023437 0.09375 0.023437 0.14062 0.046874l149.73 86.496c0.93359 8.2617 5.4609 15.703 12.809 19.902l1.6094 0.93359c4.1758 2.4023 8.7266 3.5469 13.207 3.5469 9.1484 0 18.035-4.7148 22.961-13.16l12.902-22.215c7.1602-12.66 2.7266-28.875-9.9453-36.133zm-50.609 30.801c-0.69922 1.168-1.0742 2.4492-1.5625 3.7109l-62.719-36.215 16.684-29.027 62.93 36.309c-0.88672 1.0742-1.8438 2.1016-2.4961 3.3125zm-103.27-55.02 16.895-28.887 28.676 16.543-16.684 29.027zm-38.66-22.355 16.801-28.91 28.652 16.52-16.895 28.887zm-134.07-194.16c1.6094-2.7539 4.4805-4.293 7.4219-4.293 1.3516 0 2.7305 0.32812 3.9883 1.0039l93.73 54.109c4.0352 2.4023 5.3906 7.6289 3.0586 11.691-2.3086 3.9414-7.3281 5.3203-11.363 2.9883h-0.023437l-93.777-54.133v-0.023437h-0.023437c-3.9922-2.2891-5.3242-7.4023-3.0117-11.344zm-14.234 24.5c1.1211-1.9375 2.918-3.3125 5.0625-3.875 2.125-0.58203 4.3867-0.28125 6.3242 0.83984h0.023438l93.754 54.133h0.023438c1.9141 1.1211 3.2891 2.918 3.8516 5.0625 0.58203 2.1484 0.28125 4.3867-0.83984 6.3242-1.0742 1.9375-2.8711 3.293-5.043 3.875-2.1484 0.60547-4.4102 0.25781-6.8125-1.0742v-0.023438l-5.0156-2.8945-88.316-50.98c-1.9141-1.1211-3.293-2.918-3.8516-5.0625-0.55859-2.1484-0.25781-4.4102 0.83984-6.3242zm2.707 24.875 82.762 47.625-6.6953 11.738-22.609 38.922v0.023437s-0.023437 0-0.023437 0.023438l-6.6719 11.691-82.719-47.82zm35.07 159.76c-2.2617 3.8984-7.3047 5.2734-11.199 2.918l-93.73-54.086c-2.5664-1.5391-4.1758-4.3633-4.1758-7.4648-0.023438-1.4453 0.35156-2.918 1.0977-4.2461 1.5391-2.6367 4.3398-4.1055 7.1875-4.1055 1.4219 0 2.8711 0.375 4.1758 1.1445h0.023438l93.777 54.133c0.023437 0 0.046874 0.023437 0.070312 0.023437 3.9648 2.3281 5.293 7.3906 2.7734 11.684zm14.441-24.828c-1.1211 1.9141-2.918 3.2891-5.0625 3.8516-2.1484 0.53516-4.4102 0.25781-6.3242-0.86328h-0.023437l-93.777-54.109c-1.9375-1.0977-3.2891-2.918-3.875-5.0391-0.57812-2.1719-0.27734-4.4102 0.86719-6.3477 1.0977-1.9375 2.8945-3.3125 5.0391-3.875 2.125-0.55859 4.3867-0.25781 6.3242 0.83984l93.801 54.133c1.9375 1.1211 3.2891 2.918 3.875 5.0625 0.55859 2.1719 0.27734 4.4141-0.84375 6.3477zm33.766-64.727 69.043 39.852-16.801 28.91-69.02-39.852zm254.66 151.53-12.855 22.145c-4.1289 7.0703-13.184 9.4961-20.277 5.3438l-1.6328-0.93359c-4.6445-2.6367-7.375-7.6055-7.2812-13.23 0-0.046875 0.046875-0.09375 0.046875-0.14062 0-0.09375-0.070313-0.16406-0.070313-0.25781-0.023437-2.3086 0.55859-4.5977 1.75-6.6016l12.926-22.098c1.1445-2.1016 2.8242-3.7344 4.9219-4.7617 0.21094-0.11719 0.39844-0.21094 0.55859-0.32812 2.332-1.4688 4.9688-2.2383 7.6055-2.2383 2.4492 0 4.8984 0.62891 7.1172 1.8906l1.6328 0.93359c7.0742 4.0859 9.5469 13.184 5.5586 20.277z"/>
  <path d="m160.3 297.27c0.67578 0 1.3516-0.11719 2.0312-0.375 3.0117-1.1211 4.5508-4.457 3.4297-7.4883l-15.633-42.234c-1.1211-3.0117-4.457-4.5508-7.4883-3.4297-3.0117 1.1211-4.5508 4.4805-3.4297 7.4883l15.633 42.234c0.85938 2.3594 3.0977 3.8047 5.457 3.8047z"/>
  <path d="m119.7 320.6c2.1914 0 4.3164-1.2617 5.2969-3.4062 1.3516-2.918 0.070312-6.3711-2.8711-7.7461l-38.035-17.5c-2.8945-1.3516-6.3945-0.070313-7.7461 2.8711-1.3516 2.918-0.070312 6.3711 2.8711 7.7461l38.035 17.5c0.79297 0.37109 1.6328 0.53516 2.4492 0.53516z"/>
  <path d="m145.04 356.98c-1.0508-3.0586-4.3633-4.7617-7.3984-3.6172l-41.535 14.234c-3.0586 1.0508-4.668 4.3633-3.6172 7.3984 0.84375 2.4258 3.0859 3.9414 5.5117 3.9414 0.62891 0 1.2617-0.09375 1.8906-0.32812l41.535-14.234c3.0547-1.0469 4.6641-4.3359 3.6133-7.3945z"/>
 </g>
</svg>
